<?xml version="1.0" encoding="UTF-8"?>
<svg version="1.1" viewBox="0 0 128 128" xml:space="preserve" xmlns="http://www.w3.org/2000/svg">
	<g fill="#1e90ff">
<path
   d="m 11.999999,119.9997 a 4.0000063,4.0000063 0 0 0 0,8.00001 H 116 a 4.0000063,4.0000063 0 0 0 0,-8.00001 H 104 V 19.999708 A 12,12 0 0 0 91.999995,7.9997089 h -3.999999 v -4.000025 a 3.9999998,3.9999998 0 0 0 -4.56,-3.95999999 L 27.44,8.0396959 A 3.9999998,3.9999998 0 0 0 23.999999,11.999696 V 119.9997 Z M 87.999996,15.999683 h 3.999999 a 3.9999998,3.9999998 0 0 1 4.000006,4.000025 V 119.9997 H 87.999996 Z M 67.999995,79.999708 c -2.208,0 -3.999999,-3.584012 -3.999999,-8.000012 0,-4.416 1.791999,-8.000013 3.999999,-8.000013 2.208,0 4.000002,3.584013 4.000002,8.000013 0,4.416 -1.792002,8.000012 -4.000002,8.000012 z" />
	</g>
</svg>
