<?xml version="1.0" encoding="UTF-8"?>
<svg width="200" height="140" version="1.1" viewBox="0 0 187.5 131.25" xmlns="http://www.w3.org/2000/svg"><g transform="matrix(.92557 0 0 .92557 13.635 9.4941)"><g transform="matrix(1.0527,0,0,1.0673,-37.284,-834.02)"><path d="m49.192 851.06c0.20091-1.71 1.7189-0.42699 3.6138-0.20769 15.846 7.5792 20.235-0.70977 18.641-0.94411-13.178 0.13024-21.717-6.7058-22.062-11.269 8.6461-13.556 22.251-24.11 38.153-27.401 7.2075-1.71 14.696-2.4915 21.573-5.394 6.1126-8.7176 16.266-16.699 27.481-14.969 6.7038 4.9588-2.1781 12.452-4.2498 17.676-1.3771 4.9995 9.1724 4.1884 12.864 7.0279 12.454 4.7962 24.443 11.191 34.515 20.03 6.9688-10.898 20.647-18.294 33.627-15.637-1.0102 4.3238-8.5561 7.3605-10.862 12.386-4.5649 6.091-6.4158 15.027-1.366 21.451 2.6249 5.8155 10.947 10.018 12.415 14.647-6.4206 5.7308-16.191 1.9076-22.076-2.7527-4.9574-2.6319-7.6909-10.881-12.758-11.19-11.282 13.061-28.72 17.691-44.336 23.421-6.1721-0.49285-5.5678 4.6719-0.93884 6.6232 2.8602 2.225 10.126 6.1464 2.5634 7.3177-9.2278 2.6117-16.658-4.8313-21.843-11.343-15.127-4.1897-32.319-1.5703-46.101-10.47-7.8706-4.4886-13.857-11.579-18.853-19.003z" fill="#9bd701"/><path transform="matrix(.9375 0 0 .9375 0 680.31)" d="m143.47 117.71c-11.07-0.55102-20.971 7.4758-27.084 16.193-4.1339 1.7448-8.4776 2.7605-12.855 3.6504a66.261 54.152 0 0 1 15.764 35.045 66.261 54.152 0 0 1-18.777 37.703c7.1806 0.77242 14.408 1.3767 21.242 3.2695 5.5308 6.9454 13.456 14.885 23.299 12.1 8.067-1.2493 0.3165-5.4333-2.7344-7.8066-4.9375-2.0814-5.5836-7.5902 1-7.0644 16.658-6.1117 35.259-11.05 47.293-24.982 5.4046 0.33015 8.3196 9.1282 13.607 11.936 6.2772 4.971 16.7 9.0504 23.549 2.9375-1.566-4.9371-10.444-9.4198-13.244-15.623-5.3864-6.8527-3.4122-16.386 1.457-22.883 2.4598-5.3609 10.51-8.5989 11.588-13.211-13.845-2.8343-28.436 5.055-35.869 16.68-10.744-9.4283-23.532-16.249-36.816-21.365-3.9373-3.0287-15.19-2.1633-13.721-7.4961 2.2098-5.572 11.684-13.566 4.5332-18.855-0.74765-0.11533-1.4924-0.18983-2.2305-0.22657z" fill="#0cb200"/><path d="m98.51 873.47c7.1541-8.1575 13.2-18.409 12.855-30.021-0.0844-10.025-3.6292-19.728-8.8611-27.765-0.33818-0.52485-0.52811-0.86542-0.80902-1.333-0.10571-0.17595 0.4981 0.32555 1.2522 1.0409 3.3503 3.3228 6.3792 7.1029 8.486 11.529 4.7198 9.5099 5.8261 21.576 1.4939 31.505-2.675 6.1269-7.5228 10.76-12.824 14.033-0.62817 0.36419-0.93646 0.71552-1.5935 1.0113z" fill="#ffe900"/></g><ellipse cx="46.648" cy="49.002" rx="9.3512" ry="9.4813" fill="#fff" stroke-width="1.2089"/><ellipse cx="48.671" cy="47.83" rx="5.8823" ry="5.9643" stroke-linecap="round" stroke-width=".76995"/><path d="m39.69 66.695c-1.2259 2.4229-2.1379 4.7589-1.5576 6.835 2.4907 0.65995 5.1363 1.2598 8.4388 0.83301-1.9114-0.66148-3.3403-0.91262-6.1267-2.2322-0.2515-1.8119-0.50303-3.624-0.75458-5.4359z" fill="#ffe900" stroke-width="1.06"/><ellipse cx="93.1" cy="124.5" rx="50.477" ry="3.002" fill="#ccc" stroke-width="1.06"/></g><g transform="matrix(1.155 0 0 1.155 -.17826 -.066462)"><path d="m3.9886 27.305a3.8335 3.8335 0 0 0-3.8342 3.8324 3.8335 3.8335 0 0 0 2.5323 3.5962c-0.035175 3.0653-0.17048 6.1304-0.13733 9.1956 0.76902 3.8959 3.659 5.9824 6.8591 5.2515 1.8125-0.5992 3.6493-1.7133 4.3707-3.5706 0.75493-1.867 0.7152-3.9274 0.65735-5.9052-0.13298-1.5556-0.60899-3.0962-1.4667-4.4073-0.72414 2.6126-1.885 5.0956-3.3527 7.3718 0.87218-0.27952 1.7258-0.61877 2.6111-0.85693 0.87843 2.4521-1.7153 5.1005-3.739 4.9768-1.3596-0.08521-2.8115-0.90382-3.1494-2.3053-0.35216-1.3671-0.10882-2.7883-0.13367-4.1803 0.037963-1.8566 0.068168-3.7135 0.10803-5.5701a3.8335 3.8335 0 0 0 2.5067-3.5962 3.8335 3.8335 0 0 0-3.8324-3.8324zm0 1.9281a1.9051 1.9051 0 0 1 1.9043 1.9043 1.9051 1.9051 0 0 1-1.9043 1.9061 1.9051 1.9051 0 0 1-1.9061-1.9061 1.9051 1.9051 0 0 1 1.9061-1.9043z" fill="#999" stroke-width=".058391"/><path d="m2.9668 0.057544h1.8718v29.465c-0.94194 1.8133-1.3943 0.83496-1.8718 0z" fill="#c87137" stroke-linecap="round" stroke-linejoin="round" stroke-width=".67157"/></g><g transform="translate(5.625,1.875)" fill="#0ff" stroke-linecap="round" stroke-linejoin="round"><path d="m22.472 29.677a3.3473 3.3473 0 0 0-4.7339 0 3.3473 3.3473 0 0 0 0 4.7339 3.3473 3.3473 0 0 0 4.7339 0 3.3473 3.3473 0 0 0 0-4.7339zm-0.39191 0.39191a2.7932 2.7932 0 0 1 0 3.9501 2.7932 2.7932 0 0 1-3.9501 0 2.7932 2.7932 0 0 1 0-3.9501 2.7932 2.7932 0 0 1 3.9501 0zm0.17108 0.98852a3.3473 3.3473 0 0 1-0.95794 1.9797 3.3473 3.3473 0 0 1-2.4893 0.97205 2.3627 2.3627 0 0 0 2.972-0.29444 2.3627 2.3627 0 0 0 0.47527-2.6574z" stroke-width=".25296"/><path d="m27.95 39.586a4.2057 4.2057 0 0 0-5.9478 0 4.2057 4.2057 0 0 0 0 5.9478 4.2057 4.2057 0 0 0 5.9478 0 4.2057 4.2057 0 0 0 0-5.9478zm-0.49242 0.49242a3.5094 3.5094 0 0 1 0 4.963 3.5094 3.5094 0 0 1-4.963 0 3.5094 3.5094 0 0 1 0-4.963 3.5094 3.5094 0 0 1 4.963 0zm0.21496 1.242a4.2057 4.2057 0 0 1-1.2036 2.4874 4.2057 4.2057 0 0 1-3.1276 1.2213 2.9686 2.9686 0 0 0 3.7341-0.36994 2.9686 2.9686 0 0 0 0.59715-3.3388z" stroke-width=".31782"/><path d="m34.155 23.404a5.5998 5.5998 0 0 0-7.9194 0 5.5998 5.5998 0 0 0 0 7.9194 5.5998 5.5998 0 0 0 7.9194 0 5.5998 5.5998 0 0 0 0-7.9194zm-0.65563 0.65564a4.6728 4.6728 0 0 1 0 6.6081 4.6728 4.6728 0 0 1-6.6081 0 4.6728 4.6728 0 0 1 0-6.6081 4.6728 4.6728 0 0 1 6.6081 0zm0.2862 1.6537a5.5998 5.5998 0 0 1-1.6025 3.3119 5.5998 5.5998 0 0 1-4.1644 1.6262 3.9526 3.9526 0 0 0 4.9718-0.49257 3.9526 3.9526 0 0 0 0.79509-4.4455z" stroke-width=".42318"/><path d="m22.325 15.211a4.2057 4.2057 0 0 0-5.9478 0 4.2057 4.2057 0 0 0 0 5.9478 4.2057 4.2057 0 0 0 5.9478 0 4.2057 4.2057 0 0 0 0-5.9478zm-0.49242 0.49242a3.5094 3.5094 0 0 1 0 4.963 3.5094 3.5094 0 0 1-4.963 0 3.5094 3.5094 0 0 1 0-4.963 3.5094 3.5094 0 0 1 4.963 0zm0.21496 1.242a4.2057 4.2057 0 0 1-1.2036 2.4874 4.2057 4.2057 0 0 1-3.1276 1.2213 2.9686 2.9686 0 0 0 3.7341-0.36994 2.9686 2.9686 0 0 0 0.59715-3.3388z" stroke-width=".31782"/><path d="m29.972 9.0521a3.3473 3.3473 0 0 0-4.7339 0 3.3473 3.3473 0 0 0 0 4.7339 3.3473 3.3473 0 0 0 4.7339 0 3.3473 3.3473 0 0 0 0-4.7339zm-0.39191 0.39191a2.7932 2.7932 0 0 1 0 3.9501 2.7932 2.7932 0 0 1-3.9501 0 2.7932 2.7932 0 0 1 0-3.9501 2.7932 2.7932 0 0 1 3.9501 0zm0.17108 0.98852a3.3473 3.3473 0 0 1-0.95794 1.9797 3.3473 3.3473 0 0 1-2.4893 0.97205 2.3627 2.3627 0 0 0 2.972-0.29444 2.3627 2.3627 0 0 0 0.47527-2.6574z" stroke-width=".25296"/><path d="m22.472 52.177a3.3473 3.3473 0 0 0-4.7339 0 3.3473 3.3473 0 0 0 0 4.7339 3.3473 3.3473 0 0 0 4.7339 0 3.3473 3.3473 0 0 0 0-4.7339zm-0.39191 0.39191a2.7932 2.7932 0 0 1 0 3.9501 2.7932 2.7932 0 0 1-3.9501 0 2.7932 2.7932 0 0 1 0-3.9501 2.7932 2.7932 0 0 1 3.9501 0zm0.17108 0.98852a3.3473 3.3473 0 0 1-0.95794 1.9797 3.3473 3.3473 0 0 1-2.4893 0.97205 2.3627 2.3627 0 0 0 2.972-0.29444 2.3627 2.3627 0 0 0 0.47527-2.6574z" stroke-width=".25296"/><path d="m19.054 63.483a2.216 2.216 0 0 0-3.134 0 2.216 2.216 0 0 0 0 3.134 2.216 2.216 0 0 0 3.134 0 2.216 2.216 0 0 0 0-3.134zm-0.25945 0.25946a1.8492 1.8492 0 0 1 0 2.615 1.8492 1.8492 0 0 1-2.6151 0 1.8492 1.8492 0 0 1 0-2.615 1.8492 1.8492 0 0 1 2.6151 0zm0.11326 0.65443a2.216 2.216 0 0 1-0.63418 1.3106 2.216 2.216 0 0 1-1.648 0.64353 1.5642 1.5642 0 0 0 1.9675-0.19493 1.5642 1.5642 0 0 0 0.31464-1.7592z" stroke-width=".16746"/><path d="m35.929 16.608a2.216 2.216 0 0 0-3.134 0 2.216 2.216 0 0 0 0 3.134 2.216 2.216 0 0 0 3.134 0 2.216 2.216 0 0 0 0-3.134zm-0.25945 0.25946a1.8492 1.8492 0 0 1 0 2.615 1.8492 1.8492 0 0 1-2.6151 0 1.8492 1.8492 0 0 1 0-2.615 1.8492 1.8492 0 0 1 2.6151 0zm0.11326 0.65443a2.216 2.216 0 0 1-0.63418 1.3106 2.216 2.216 0 0 1-1.648 0.64353 1.5642 1.5642 0 0 0 1.9675-0.19493 1.5642 1.5642 0 0 0 0.31464-1.7592z" stroke-width=".16746"/></g></svg>
