<?xml version="1.0" encoding="UTF-8" standalone="no"?>
<!-- Created with Inkscape (http://www.inkscape.org/) -->

<svg
   width="147.99982"
   height="147.99982"
   viewBox="0 0 39.158283 39.158283"
   version="1.1"
   id="svg5"
   xmlns="http://www.w3.org/2000/svg"
   xmlns:svg="http://www.w3.org/2000/svg">
  <defs
     id="defs2" />
  <g
     id="layer1"
     transform="translate(-105.156,-148.312)">
    <g
       transform="matrix(0.264583,0,0,0.264583,105.156,148.312)"
       id="g836">
      <rect
         x="0"
         y="0"
         width="148"
         height="148"
         style="fill:#ffffff;stroke:none"
         id="rect830" />
      <g
         style="fill:#000000;stroke:none"
         id="g834">
        <path
           d="M 111.6,132 H 92.4 C 92.179086,132 92,131.82091 92,131.6 V 128 h 11.6 c 0.22091,0 0.4,-0.17909 0.4,-0.4 v -3.2 c 0,-0.22091 0.17909,-0.4 0.4,-0.4 h 3.6 v 3.6 c 0,0.22091 0.17909,0.4 0.4,0.4 h 3.2 c 0.22091,0 0.4,0.17909 0.4,0.4 v 3.2 c 0,0.22091 -0.17909,0.4 -0.4,0.4 z m -32,0 H 64.4 C 64.179086,132 64,131.82091 64,131.6 V 128 h 7.6 c 0.220914,0 0.4,-0.17909 0.4,-0.4 v -3.2 c 0,-0.22091 -0.179086,-0.4 -0.4,-0.4 h -3.2 c -0.220914,0 -0.4,-0.17909 -0.4,-0.4 v -3.2 c 0,-0.22091 -0.179086,-0.4 -0.4,-0.4 h -3.2 c -0.220914,0 -0.4,-0.17909 -0.4,-0.4 v -7.2 c 0,-0.22091 0.179086,-0.4 0.4,-0.4 h 3.2 c 0.220914,0 0.4,0.17909 0.4,0.4 v 3.2 c 0,0.22091 0.179086,0.4 0.4,0.4 h 7.2 c 0.220914,0 0.4,-0.17909 0.4,-0.4 v -3.2 C 76,112.17909 75.820914,112 75.6,112 H 72.4 C 72.179086,112 72,111.82091 72,111.6 V 108 h 3.6 c 0.220914,0 0.4,-0.17909 0.4,-0.4 v -7.2 C 76,100.17909 75.820914,100 75.6,100 H 72.4 C 72.179086,100 72,99.820914 72,99.6 V 96 h 19.6 c 0.220914,0 0.4,0.179086 0.4,0.4 v 7.6 h -7.6 c -0.220914,0 -0.4,-0.17909 -0.4,-0.4 v -3.2 c 0,-0.22091 -0.179086,-0.4 -0.4,-0.4 h -3.2 c -0.220914,0 -0.4,0.17909 -0.4,0.4 v 15.2 c 0,0.22091 0.179086,0.4 0.4,0.4 H 92 v 3.6 c 0,0.22091 0.179086,0.4 0.4,0.4 H 96 v 3.6 c 0,0.22091 -0.179086,0.4 -0.4,0.4 h -3.2 c -0.220914,0 -0.4,0.17909 -0.4,0.4 v 3.6 h -3.6 c -0.220914,0 -0.4,-0.17909 -0.4,-0.4 v -3.2 C 88,124.17909 87.820914,124 87.6,124 H 84 v -3.6 c 0,-0.22091 -0.179086,-0.4 -0.4,-0.4 h -3.2 c -0.220914,0 -0.4,0.17909 -0.4,0.4 v 3.6 h -3.6 c -0.220914,0 -0.4,0.17909 -0.4,0.4 v 3.2 c 0,0.22091 0.179086,0.4 0.4,0.4 H 80 v 3.6 c 0,0.22091 -0.179086,0.4 -0.4,0.4 z m -28,0 h -3.2 c -0.220914,0 -0.4,-0.17909 -0.4,-0.4 v -7.2 c 0,-0.22091 0.179086,-0.4 0.4,-0.4 h 3.2 c 0.220914,0 0.4,0.17909 0.4,0.4 v 7.2 c 0,0.22091 -0.179086,0.4 -0.4,0.4 z m -8,0 H 16.4 c -0.220914,0 -0.4,-0.17909 -0.4,-0.4 v -27.2 c 0,-0.22091 0.179086,-0.4 0.4,-0.4 h 27.2 c 0.220914,0 0.4,0.17909 0.4,0.4 v 27.2 c 0,0.22091 -0.179086,0.4 -0.4,0.4 z m 88,-4 h -3.2 c -0.22091,0 -0.4,-0.17909 -0.4,-0.4 v -3.2 c 0,-0.22091 -0.17909,-0.4 -0.4,-0.4 h -3.2 c -0.22091,0 -0.4,0.17909 -0.4,0.4 v 3.2 c 0,0.22091 -0.17909,0.4 -0.4,0.4 h -7.2 c -0.22091,0 -0.4,-0.17909 -0.4,-0.4 V 124 h 3.6 c 0.22091,0 0.4,-0.17909 0.4,-0.4 v -3.2 c 0,-0.22091 0.17909,-0.4 0.4,-0.4 h 7.2 c 0.22091,0 0.4,-0.17909 0.4,-0.4 v -3.2 c 0,-0.22091 0.17909,-0.4 0.4,-0.4 h 3.2 c 0.22091,0 0.4,0.17909 0.4,0.4 v 11.2 c 0,0.22091 -0.17909,0.4 -0.4,0.4 z m -48,0 H 80 v -4 h 4 v 3.6 c 0,0.22091 -0.179086,0.4 -0.4,0.4 z m -20,0 h -7.2 c -0.220914,0 -0.4,-0.17909 -0.4,-0.4 v -3.2 c 0,-0.22091 0.179086,-0.4 0.4,-0.4 h 7.2 c 0.220914,0 0.4,0.17909 0.4,0.4 V 128 Z M 40,127.6 V 108.4 C 40,108.17909 39.820914,108 39.6,108 H 20.4 c -0.220914,0 -0.4,0.17909 -0.4,0.4 v 19.2 c 0,0.22091 0.179086,0.4 0.4,0.4 h 19.2 c 0.220914,0 0.4,-0.17909 0.4,-0.4 z M 115.6,124 H 108 v -3.6 c 0,-0.22091 0.17909,-0.4 0.4,-0.4 h 7.2 c 0.22091,0 0.4,0.17909 0.4,0.4 v 3.6 z m -80,0 H 24.4 c -0.220914,0 -0.4,-0.17909 -0.4,-0.4 v -11.2 c 0,-0.22091 0.179086,-0.4 0.4,-0.4 h 11.2 c 0.220914,0 0.4,0.17909 0.4,0.4 v 11.2 c 0,0.22091 -0.179086,0.4 -0.4,0.4 z m 68,-4 H 96 v -3.6 C 96,116.17909 95.820914,116 95.6,116 H 92 v -3.6 c 0,-0.22091 0.179086,-0.4 0.4,-0.4 h 3.2 c 0.220914,0 0.4,-0.17909 0.4,-0.4 v -3.2 C 96,108.17909 95.820914,108 95.6,108 H 92.4 C 92.179086,108 92,107.82091 92,107.6 V 104 h 3.6 c 0.220914,0 0.4,-0.17909 0.4,-0.4 V 96.4 C 96,96.179086 96.179086,96 96.4,96 h 7.2 c 0.22091,0 0.4,-0.179086 0.4,-0.4 V 92.4 C 104,92.179086 103.82091,92 103.6,92 H 92.4 C 92.179086,92 92,91.820914 92,91.6 V 88.4 C 92,88.179086 91.820914,88 91.6,88 H 88.4 C 88.179086,88 88,87.820914 88,87.6 V 84.4 C 88,84.179086 88.179086,84 88.4,84 h 7.2 C 95.820914,84 96,83.820914 96,83.6 V 80 h 4 v 3.6 c 0,0.220914 0.17909,0.4 0.4,0.4 h 3.2 c 0.22091,0 0.4,0.179086 0.4,0.4 v 3.2 c 0,0.220914 0.17909,0.4 0.4,0.4 h 3.2 c 0.22091,0 0.4,0.179086 0.4,0.4 v 7.2 c 0,0.220914 0.17909,0.4 0.4,0.4 h 3.2 c 0.22091,0 0.4,-0.179086 0.4,-0.4 V 84.4 c 0,-0.220914 0.17909,-0.4 0.4,-0.4 h 3.6 v 3.6 c 0,0.220914 0.17909,0.4 0.4,0.4 h 3.6 v 3.6 c 0,0.220914 0.17909,0.4 0.4,0.4 h 3.2 c 0.22091,0 0.4,0.179086 0.4,0.4 v 3.2 c 0,0.220914 0.17909,0.4 0.4,0.4 h 3.2 c 0.22091,0 0.4,0.179086 0.4,0.4 v 3.2 c 0,0.220914 -0.17909,0.4 -0.4,0.4 h -7.2 c -0.22091,0 -0.4,0.17909 -0.4,0.4 v 7.2 c 0,0.22091 -0.17909,0.4 -0.4,0.4 h -3.2 c -0.22091,0 -0.4,0.17909 -0.4,0.4 v 3.2 c 0,0.22091 0.17909,0.4 0.4,0.4 h 3.2 c 0.22091,0 0.4,0.17909 0.4,0.4 v 3.2 c 0,0.22091 -0.17909,0.4 -0.4,0.4 h -15.2 c -0.22091,0 -0.4,0.17909 -0.4,0.4 v 3.2 c 0,0.22091 -0.17909,0.4 -0.4,0.4 z m -48,0 h -7.2 c -0.220914,0 -0.4,-0.17909 -0.4,-0.4 v -7.2 c 0,-0.22091 0.179086,-0.4 0.4,-0.4 H 52 v 3.6 c 0,0.22091 0.179086,0.4 0.4,0.4 h 3.2 c 0.220914,0 0.4,0.17909 0.4,0.4 v 3.2 c 0,0.22091 -0.179086,0.4 -0.4,0.4 z m 76,-8 h -3.2 c -0.22091,0 -0.4,-0.17909 -0.4,-0.4 v -3.2 c 0,-0.22091 0.17909,-0.4 0.4,-0.4 h 3.2 c 0.22091,0 0.4,0.17909 0.4,0.4 v 3.2 c 0,0.22091 -0.17909,0.4 -0.4,0.4 z M 112,111.6 v -11.2 c 0,-0.22091 -0.17909,-0.4 -0.4,-0.4 h -11.2 c -0.22091,0 -0.4,0.17909 -0.4,0.4 v 11.2 c 0,0.22091 0.17909,0.4 0.4,0.4 h 11.2 c 0.22091,0 0.4,-0.17909 0.4,-0.4 z M 87.6,112 h -3.2 c -0.220914,0 -0.4,-0.17909 -0.4,-0.4 v -3.2 c 0,-0.22091 0.179086,-0.4 0.4,-0.4 h 3.2 c 0.220914,0 0.4,0.17909 0.4,0.4 v 3.2 c 0,0.22091 -0.179086,0.4 -0.4,0.4 z m -28,0 H 52 v -7.6 c 0,-0.22091 -0.179086,-0.4 -0.4,-0.4 h -3.2 c -0.220914,0 -0.4,-0.17909 -0.4,-0.4 v -3.2 C 48,100.17909 47.820914,100 47.6,100 H 32.4 C 32.179086,100 32,99.820914 32,99.6 V 96.4 C 32,96.179086 31.820914,96 31.6,96 H 28.4 C 28.179086,96 28,95.820914 28,95.6 V 92 h 3.6 C 31.820914,92 32,91.820914 32,91.6 V 84 h 4 v 11.6 c 0,0.220914 0.179086,0.4 0.4,0.4 h 7.2 C 43.820914,96 44,95.820914 44,95.6 V 92 h 4 v 3.6 c 0,0.220914 0.179086,0.4 0.4,0.4 h 3.2 C 51.820914,96 52,95.820914 52,95.6 V 92.4 C 52,92.179086 51.820914,92 51.6,92 H 48 V 88.4 C 48,88.179086 47.820914,88 47.6,88 H 44 V 84.4 C 44,84.179086 43.820914,84 43.6,84 H 36 V 80.4 C 36,80.179086 35.820914,80 35.6,80 H 32.4 C 32.179086,80 32,80.179086 32,80.4 V 84 H 28 V 80.4 C 28,80.179086 27.820914,80 27.6,80 H 24.4 C 24.179086,80 24,79.820914 24,79.6 V 72.4 C 24,72.179086 24.179086,72 24.4,72 h 3.2 c 0.220914,0 0.4,0.179086 0.4,0.4 v 3.2 c 0,0.220914 0.179086,0.4 0.4,0.4 h 7.2 C 35.820914,76 36,75.820914 36,75.6 V 72 h 8 v 3.6 C 44,75.820914 43.820914,76 43.6,76 H 40.4 C 40.179086,76 40,76.179086 40,76.4 v 3.2 c 0,0.220914 0.179086,0.4 0.4,0.4 h 7.2 C 47.820914,80 48,79.820914 48,79.6 V 72.4 C 48,72.179086 47.820914,72 47.6,72 H 44 v -4 h 3.6 C 47.820914,68 48,67.820914 48,67.6 V 60.4 C 48,60.179086 48.179086,60 48.4,60 h 7.2 C 55.820914,60 56,59.820914 56,59.6 V 56 h 8 v 3.6 c 0,0.220914 0.179086,0.4 0.4,0.4 h 3.2 c 0.220914,0 0.4,0.179086 0.4,0.4 V 68 H 60.4 C 60.179086,68 60,67.820914 60,67.6 V 64.4 C 60,64.179086 59.820914,64 59.6,64 H 56.4 C 56.179086,64 56,64.179086 56,64.4 v 3.2 C 56,67.820914 55.820914,68 55.6,68 H 52.4 C 52.179086,68 52,68.179086 52,68.4 v 15.2 c 0,0.220914 0.179086,0.4 0.4,0.4 H 56 v 15.6 c 0,0.220914 0.179086,0.4 0.4,0.4 h 3.2 c 0.220914,0 0.4,0.17909 0.4,0.4 v 11.2 c 0,0.22091 -0.179086,0.4 -0.4,0.4 z m 48,-4 h -3.2 c -0.22091,0 -0.4,-0.17909 -0.4,-0.4 v -3.2 c 0,-0.22091 0.17909,-0.4 0.4,-0.4 h 3.2 c 0.22091,0 0.4,0.17909 0.4,0.4 v 3.2 c 0,0.22091 -0.17909,0.4 -0.4,0.4 z m -36,0 h -7.2 c -0.220914,0 -0.4,-0.17909 -0.4,-0.4 v -3.2 c 0,-0.22091 0.179086,-0.4 0.4,-0.4 h 7.2 c 0.220914,0 0.4,0.17909 0.4,0.4 v 3.6 z m -4,-8 H 64.4 C 64.179086,100 64,99.820914 64,99.6 V 92 h 8 v 4 H 68.4 C 68.179086,96 68,96.179086 68,96.4 v 3.2 c 0,0.220914 -0.179086,0.4 -0.4,0.4 z m -44,0 H 16.4 C 16.179086,100 16,99.820914 16,99.6 V 84.4 C 16,84.179086 16.179086,84 16.4,84 H 28 v 8 H 24.4 C 24.179086,92 24,92.179086 24,92.4 v 7.2 c 0,0.220914 -0.179086,0.4 -0.4,0.4 z m 108,-8 h -3.2 C 128.17909,92 128,91.820914 128,91.6 V 88 h 3.6 c 0.22091,0 0.4,0.179086 0.4,0.4 v 3.2 c 0,0.220914 -0.17909,0.4 -0.4,0.4 z m -52,0 H 72 v -8 h 3.6 C 75.820914,84 76,83.820914 76,83.6 V 80.4 C 76,80.179086 75.820914,80 75.6,80 H 72 V 72.4 C 72,72.179086 71.820914,72 71.6,72 H 68 v -4 h 7.6 C 75.820914,68 76,67.820914 76,67.6 V 64.4 C 76,64.179086 75.820914,64 75.6,64 H 72.4 C 72.179086,64 72,63.820914 72,63.6 V 60.4 C 72,60.179086 72.179086,60 72.4,60 h 3.2 C 75.820914,60 76,59.820914 76,59.6 V 56.4 C 76,56.179086 75.820914,56 75.6,56 H 64 V 52 H 75.6 C 75.820914,52 76,51.820914 76,51.6 V 48.4 C 76,48.179086 75.820914,48 75.6,48 H 68.4 C 68.179086,48 68,47.820914 68,47.6 V 44 h 3.6 C 71.820914,44 72,43.820914 72,43.6 V 36.4 C 72,36.179086 72.179086,36 72.4,36 h 3.2 c 0.220914,0 0.4,0.179086 0.4,0.4 v 7.2 c 0,0.220914 0.179086,0.4 0.4,0.4 H 80 v 11.6 c 0,0.220914 0.179086,0.4 0.4,0.4 H 84 v 3.6 c 0,0.220914 0.179086,0.4 0.4,0.4 h 7.2 c 0.220914,0 0.4,0.179086 0.4,0.4 v 3.2 C 92,63.820914 91.820914,64 91.6,64 H 84.4 C 84.179086,64 84,64.179086 84,64.4 v 3.2 c 0,0.220914 0.179086,0.4 0.4,0.4 h 7.2 c 0.220914,0 0.4,0.179086 0.4,0.4 v 3.2 c 0,0.220914 0.179086,0.4 0.4,0.4 h 7.2 c 0.220914,0 0.4,0.179086 0.4,0.4 V 76 H 96.4 C 96.179086,76 96,76.179086 96,76.4 V 80 H 92.4 C 92.179086,80 92,79.820914 92,79.6 V 76.4 C 92,76.179086 91.820914,76 91.6,76 H 88.4 C 88.179086,76 88,75.820914 88,75.6 V 72.4 C 88,72.179086 87.820914,72 87.6,72 H 80.4 C 80.179086,72 80,72.179086 80,72.4 v 3.2 c 0,0.220914 0.179086,0.4 0.4,0.4 h 3.2 c 0.220914,0 0.4,0.179086 0.4,0.4 v 7.2 C 84,83.820914 83.820914,84 83.6,84 H 80.4 C 80.179086,84 80,84.179086 80,84.4 v 7.2 c 0,0.220914 -0.179086,0.4 -0.4,0.4 z m -16,0 H 60.4 C 60.179086,92 60,91.820914 60,91.6 V 84 h 8 v 3.6 C 68,87.820914 67.820914,88 67.6,88 H 64.4 C 64.179086,88 64,88.179086 64,88.4 V 92 Z m -20,0 H 40.4 C 40.179086,92 40,91.820914 40,91.6 V 88.4 C 40,88.179086 40.179086,88 40.4,88 H 44 v 4 z m 84,-4 H 120 v -4 h 7.6 c 0.22091,0 0.4,0.179086 0.4,0.4 V 88 Z m -8,-4 H 116 v -4 h 4 v 4 z m -48,0 H 68 V 80.4 C 68,80.179086 68.179086,80 68.4,80 H 72 v 4 z m -12,0 H 56 V 76.4 C 56,76.179086 56.179086,76 56.4,76 h 3.2 C 59.820914,76 60,75.820914 60,75.6 V 72.4 C 60,72.179086 60.179086,72 60.4,72 H 68 v 3.6 C 68,75.820914 67.820914,76 67.6,76 H 64.4 C 64.179086,76 64,76.179086 64,76.4 v 3.2 C 64,79.820914 63.820914,80 63.6,80 H 60.4 C 60.179086,80 60,80.179086 60,80.4 V 84 Z m 72,-4 h -3.2 c -0.22091,0 -0.4,-0.179086 -0.4,-0.4 v -7.2 c 0,-0.220914 -0.17909,-0.4 -0.4,-0.4 h -3.2 c -0.22091,0 -0.4,0.179086 -0.4,0.4 v 7.2 c 0,0.220914 -0.17909,0.4 -0.4,0.4 H 120 v -7.6 c 0,-0.220914 -0.17909,-0.4 -0.4,-0.4 h -11.2 c -0.22091,0 -0.4,0.179086 -0.4,0.4 v 3.2 c 0,0.220914 0.17909,0.4 0.4,0.4 h 7.2 c 0.22091,0 0.4,0.179086 0.4,0.4 V 80 h -16 v -4 h 3.6 c 0.22091,0 0.4,-0.179086 0.4,-0.4 V 64.4 C 104,64.179086 103.82091,64 103.6,64 H 100 v -3.6 c 0,-0.220914 0.17909,-0.4 0.4,-0.4 h 7.2 c 0.22091,0 0.4,0.179086 0.4,0.4 v 3.2 c 0,0.220914 0.17909,0.4 0.4,0.4 h 3.6 v 3.6 c 0,0.220914 0.17909,0.4 0.4,0.4 h 15.2 c 0.22091,0 0.4,-0.179086 0.4,-0.4 v -7.2 c 0,-0.220914 0.17909,-0.4 0.4,-0.4 h 3.2 c 0.22091,0 0.4,0.179086 0.4,0.4 v 19.2 c 0,0.220914 -0.17909,0.4 -0.4,0.4 z m -96,-8 H 32.4 C 32.179086,72 32,71.820914 32,71.6 V 64 h 3.6 c 0.220914,0 0.4,0.179086 0.4,0.4 V 72 Z m -16,0 H 16.4 C 16.179086,72 16,71.820914 16,71.6 V 68.4 C 16,68.179086 16.179086,68 16.4,68 H 20 v 3.6 c 0,0.220914 -0.179086,0.4 -0.4,0.4 z m 80,-4 H 96.4 C 96.179086,68 96,67.820914 96,67.6 V 64.4 C 96,64.179086 96.179086,64 96.4,64 h 3.6 v 3.6 c 0,0.220914 -0.179086,0.4 -0.4,0.4 z m -56,0 H 40.4 C 40.179086,68 40,67.820914 40,67.6 V 64.4 C 40,64.179086 40.179086,64 40.4,64 h 3.2 c 0.220914,0 0.4,0.179086 0.4,0.4 V 68 Z m -20,0 H 20 v -4 h 4 v 3.6 c 0,0.220914 -0.179086,0.4 -0.4,0.4 z m 96,-4 H 112 v -3.6 c 0,-0.220914 0.17909,-0.4 0.4,-0.4 h 7.6 v 3.6 c 0,0.220914 -0.17909,0.4 -0.4,0.4 z m -88,0 H 24 v -4 h 8 v 4 z m -12,0 H 16.4 C 16.179086,64 16,63.820914 16,63.6 V 56.4 C 16,56.179086 16.179086,56 16.4,56 h 7.2 c 0.220914,0 0.4,0.179086 0.4,0.4 V 60 H 20.4 C 20.179086,60 20,60.179086 20,60.4 V 64 Z m 104,-4 H 120 v -7.6 c 0,-0.220914 0.17909,-0.4 0.4,-0.4 h 7.6 v 3.6 c 0,0.220914 -0.17909,0.4 -0.4,0.4 h -3.2 c -0.22091,0 -0.4,0.179086 -0.4,0.4 v 3.2 c 0,0.220914 -0.17909,0.4 -0.4,0.4 z m -80,0 H 32 v -4 h 3.6 C 35.820914,56 36,55.820914 36,55.6 V 52 h 4 v 3.6 c 0,0.220914 0.179086,0.4 0.4,0.4 h 3.2 c 0.220914,0 0.4,0.179086 0.4,0.4 v 3.2 c 0,0.220914 -0.179086,0.4 -0.4,0.4 z m 72,-4 h -7.2 C 108.17909,56 108,55.820914 108,55.6 V 52 h 7.6 c 0.22091,0 0.4,0.179086 0.4,0.4 v 3.2 c 0,0.220914 -0.17909,0.4 -0.4,0.4 z m -12,0 h -3.2 C 100.17909,56 100,55.820914 100,55.6 V 52 h 4 v 3.6 c 0,0.220914 -0.17909,0.4 -0.4,0.4 z m -8,0 H 84 V 48.4 C 84,48.179086 84.179086,48 84.4,48 h 3.2 C 87.820914,48 88,47.820914 88,47.6 V 36.4 C 88,36.179086 87.820914,36 87.6,36 H 84.4 C 84.179086,36 84,36.179086 84,36.4 v 7.2 C 84,43.820914 83.820914,44 83.6,44 H 80 V 32.4 C 80,32.179086 79.820914,32 79.6,32 H 76.4 C 76.179086,32 76,31.820914 76,31.6 V 24 h 3.6 C 79.820914,24 80,23.820914 80,23.6 V 20.4 C 80,20.179086 80.179086,20 80.4,20 H 84 v 7.6 c 0,0.220914 0.179086,0.4 0.4,0.4 h 3.2 c 0.220914,0 0.4,0.179086 0.4,0.4 v 3.2 c 0,0.220914 0.179086,0.4 0.4,0.4 h 3.2 C 91.820914,32 92,31.820914 92,31.6 V 20.4 C 92,20.179086 92.179086,20 92.4,20 h 7.2 c 0.220914,0 0.4,0.179086 0.4,0.4 v 3.2 c 0,0.220914 -0.179086,0.4 -0.4,0.4 H 96.4 C 96.179086,24 96,24.179086 96,24.4 v 3.2 c 0,0.220914 0.179086,0.4 0.4,0.4 h 3.2 c 0.220914,0 0.4,0.179086 0.4,0.4 v 3.2 c 0,0.220914 -0.179086,0.4 -0.4,0.4 H 96.4 C 96.179086,32 96,32.179086 96,32.4 v 3.2 C 96,35.820914 95.820914,36 95.6,36 H 92.4 C 92.179086,36 92,36.179086 92,36.4 v 7.2 c 0,0.220914 0.179086,0.4 0.4,0.4 H 96 v 3.6 c 0,0.220914 0.179086,0.4 0.4,0.4 h 3.2 c 0.220914,0 0.4,0.179086 0.4,0.4 V 52 H 96.4 C 96.179086,52 96,52.179086 96,52.4 v 3.2 c 0,0.220914 -0.179086,0.4 -0.4,0.4 z m -40,0 H 48.4 C 48.179086,56 48,55.820914 48,55.6 V 52.4 C 48,52.179086 48.179086,52 48.4,52 h 3.2 C 51.820914,52 52,51.820914 52,51.6 V 48 h 3.6 C 55.820914,48 56,47.820914 56,47.6 V 36 h 4 v 7.6 c 0,0.220914 0.179086,0.4 0.4,0.4 H 64 v 8 H 56.4 C 56.179086,52 56,52.179086 56,52.4 V 56 Z m -24,0 H 28.4 C 28.179086,56 28,55.820914 28,55.6 V 48.4 C 28,48.179086 28.179086,48 28.4,48 h 7.2 c 0.220914,0 0.4,0.179086 0.4,0.4 V 52 H 32.4 C 32.179086,52 32,52.179086 32,52.4 V 56 Z m 100,-4 H 128 v -3.6 c 0,-0.220914 0.17909,-0.4 0.4,-0.4 h 3.2 c 0.22091,0 0.4,0.179086 0.4,0.4 v 3.2 c 0,0.220914 -0.17909,0.4 -0.4,0.4 z m -24,0 H 104 v -3.6 c 0,-0.220914 0.17909,-0.4 0.4,-0.4 h 3.2 c 0.22091,0 0.4,0.179086 0.4,0.4 V 52 Z m -64,0 H 40 V 48.4 C 40,48.179086 40.179086,48 40.4,48 h 3.2 c 0.220914,0 0.4,0.179086 0.4,0.4 v 3.2 c 0,0.220914 -0.179086,0.4 -0.4,0.4 z m -20,0 H 16.4 C 16.179086,52 16,51.820914 16,51.6 V 48.4 C 16,48.179086 16.179086,48 16.4,48 h 7.2 c 0.220914,0 0.4,0.179086 0.4,0.4 v 3.2 c 0,0.220914 -0.179086,0.4 -0.4,0.4 z m 28,-4 H 48.4 C 48.179086,48 48,47.820914 48,47.6 V 40.4 C 48,40.179086 48.179086,40 48.4,40 h 3.2 c 0.220914,0 0.4,0.179086 0.4,0.4 V 48 Z m 80,-4 H 104.4 C 104.17909,44 104,43.820914 104,43.6 V 16.4 c 0,-0.220914 0.17909,-0.4 0.4,-0.4 h 27.2 c 0.22091,0 0.4,0.179086 0.4,0.4 v 27.2 c 0,0.220914 -0.17909,0.4 -0.4,0.4 z m -32,0 H 96 V 40.4 C 96,40.179086 96.179086,40 96.4,40 h 3.2 c 0.220914,0 0.4,0.179086 0.4,0.4 v 3.2 c 0,0.220914 -0.179086,0.4 -0.4,0.4 z m -32,0 H 64 v -8 h 3.6 c 0.220914,0 0.4,0.179086 0.4,0.4 V 44 Z m -24,0 H 16.4 C 16.179086,44 16,43.820914 16,43.6 V 16.4 C 16,16.179086 16.179086,16 16.4,16 h 27.2 c 0.220914,0 0.4,0.179086 0.4,0.4 V 43.6 C 44,43.820914 43.820914,44 43.6,44 Z M 128,39.6 V 20.4 c 0,-0.220914 -0.17909,-0.4 -0.4,-0.4 h -19.2 c -0.22091,0 -0.4,0.179086 -0.4,0.4 v 19.2 c 0,0.220914 0.17909,0.4 0.4,0.4 h 19.2 c 0.22091,0 0.4,-0.179086 0.4,-0.4 z m -88,0 V 20.4 C 40,20.179086 39.820914,20 39.6,20 H 20.4 C 20.179086,20 20,20.179086 20,20.4 v 19.2 c 0,0.220914 0.179086,0.4 0.4,0.4 H 39.6 C 39.820914,40 40,39.820914 40,39.6 Z M 123.6,36 H 112.4 C 112.17909,36 112,35.820914 112,35.6 V 24.4 c 0,-0.220914 0.17909,-0.4 0.4,-0.4 h 11.2 c 0.22091,0 0.4,0.179086 0.4,0.4 v 11.2 c 0,0.220914 -0.17909,0.4 -0.4,0.4 z m -60,0 H 60 V 32.4 C 60,32.179086 60.179086,32 60.4,32 H 64 v 4 z m -8,0 H 52.4 C 52.179086,36 52,35.820914 52,35.6 V 32.4 C 52,32.179086 52.179086,32 52.4,32 h 3.2 c 0.220914,0 0.4,0.179086 0.4,0.4 V 36 Z m -20,0 H 24.4 C 24.179086,36 24,35.820914 24,35.6 V 24.4 C 24,24.179086 24.179086,24 24.4,24 h 11.2 c 0.220914,0 0.4,0.179086 0.4,0.4 v 11.2 c 0,0.220914 -0.179086,0.4 -0.4,0.4 z m 36,-4 H 64 V 24.4 C 64,24.179086 64.179086,24 64.4,24 h 3.2 C 67.820914,24 68,23.820914 68,23.6 V 20.4 C 68,20.179086 67.820914,20 67.6,20 H 60 V 16.4 C 60,16.179086 60.179086,16 60.4,16 h 11.2 c 0.220914,0 0.4,0.179086 0.4,0.4 v 3.2 c 0,0.220914 0.179086,0.4 0.4,0.4 h 3.2 c 0.220914,0 0.4,0.179086 0.4,0.4 V 24 H 72.4 C 72.179086,24 72,24.179086 72,24.4 v 7.2 c 0,0.220914 -0.179086,0.4 -0.4,0.4 z m -12,-4 H 56.4 C 56.179086,28 56,27.820914 56,27.6 V 24.4 C 56,24.179086 55.820914,24 55.6,24 H 52.4 C 52.179086,24 52,23.820914 52,23.6 V 20 h 8 v 7.6 c 0,0.220914 -0.179086,0.4 -0.4,0.4 z m 28,-8 H 84 V 16.4 C 84,16.179086 84.179086,16 84.4,16 h 3.2 c 0.220914,0 0.4,0.179086 0.4,0.4 v 3.2 c 0,0.220914 -0.179086,0.4 -0.4,0.4 z m -36,0 H 48.4 C 48.179086,20 48,19.820914 48,19.6 V 16.4 C 48,16.179086 48.179086,16 48.4,16 h 3.2 c 0.220914,0 0.4,0.179086 0.4,0.4 V 20 Z"
           id="path832" />
      </g>
    </g>
  </g>
</svg>
