<?xml version="1.0" encoding="UTF-8"?>
<svg width="100" height="100" version="1.1" viewBox="0 0 26.459 26.459" xmlns="http://www.w3.org/2000/svg"><path d="m19.162 25.255c0 0.22592-1.5272 0.40896-3.4111 0.40896s-3.4111-0.18304-3.4111-0.40896c0-0.22585 1.5272-0.40894 3.4111-0.40894 1.8838 0 3.4111 0.1831 3.4111 0.40894z" fill="#ccc" stroke-width=".056678"/><g transform="matrix(.21969 0 0 .2252 -6.9567 -16.394)"><path d="m77.757 111.72s-1.0359-35.888 5.4789-34.155c6.5148 1.7327 16.716 32.426 16.716 32.426s3.1081 6.802 9.9286 3.8458c6.8206-2.9562 38.261-10.574 41.9-7.8394 3.6399 2.7342-24.962 19.993-32.597 23.945-8.3624 10.822 17.017 25.939 17.93 42.801-1.7544 6.3534-32.005-20.291-32.005-20.291s-6.6455-9.5547-13.119 1.8881c-8.5691 15.147-22.899 28.839-24.449 28.904-1.5505 0.0649-1.2903-13.189 8.6598-37.039 2.9295-7.0219-11.317-10.594-11.317-10.594s-34.069-13.875-33.202-16.837 14.144-4.3129 39.877-1.4501c8.0146 0.89162 6.199-5.6056 6.199-5.6056z" fill="#febd01"/><g stroke-linecap="round" stroke-linejoin="round"><ellipse cx="100.66" cy="124.25" rx="6.7218" ry="6.7077" fill="#fff" stroke="#00bc3a" stroke-width=".92344"/><ellipse cx="103.61" cy="125.94" rx="2.7167" ry="2.711" stroke-width=".11114"/><ellipse cx="83.747" cy="126.91" rx="6.7218" ry="6.7077" fill="#fff" stroke="#00bc3a" stroke-width=".92344"/><ellipse cx="86.175" cy="128.44" rx="2.7167" ry="2.711" stroke-width=".11114"/><g fill="#00bc3a" stroke-width=".275"><circle cx="82.469" cy="85.501" r="1.4728"/><circle cx="80.881" cy="89.735" r="1.4728"/><circle cx="85.643" cy="91.851" r="1.4728"/><circle cx="86.702" cy="96.084" r="1.4728"/><circle cx="81.939" cy="95.026" r="1.4728"/><circle cx="81.939" cy="100.32" r="1.4728"/><circle cx="80.352" cy="163.29" r="1.4728"/><circle cx="74.002" cy="165.41" r="1.4728"/><circle cx="78.235" cy="167.52" r="1.4728"/><circle cx="72.414" cy="170.7" r="1.4728"/><circle cx="74.531" cy="173.87" r="1.4728"/><circle cx="70.298" cy="177.05" r="1.4728"/><circle cx="129.95" cy="120.02" r="1.4728"/><circle cx="131.04" cy="114.21" r="1.4728"/><circle cx="135.4" cy="111.19" r="1.4728"/><circle cx="140.17" cy="109.14" r="1.4728"/><circle cx="135.16" cy="116.74" r="1.4728"/><circle cx="139.47" cy="114.72" r="1.4728"/><circle cx="143.55" cy="111.64" r="1.4728"/><circle cx="148.05" cy="108.4" r="1.4728"/></g><path d="m87.218 138.4s2.0146 0.70104 2.7678-2.3397" fill="#008000" fill-opacity="0" stroke="#00bc3a" stroke-width=".89901"/></g><g fill="#fff"><path d="m103.25 135.81s-1.9564 0.85572-2.9314-2.1173" fill-opacity="0" stroke="#00bc3a" stroke-linecap="round" stroke-linejoin="round" stroke-width=".89901"/><path d="m101.69 135.63s-4.2299 5.6236-12.527 2.1092c0 0 7.6148 20.841 12.527-2.1092" stroke-width=".25908"/><path d="m101.69 135.63s-4.2299 5.6236-12.527 2.1092c0 0 7.6148 20.841 12.527-2.1092z" fill-opacity="0" stroke="#00bc3a" stroke-linecap="round" stroke-linejoin="round" stroke-width=".89901"/></g></g></svg>
